<svg xmlns="http://www.w3.org/2000/svg" width="23" height="20" viewBox="0 0 23 20"  class="fill-current">
  <path d="M20.5259 4.4898H15.7311V1.90503C15.7311 0.696864 15.2911 0 14.0388 0H8.96175C7.70941 0 7.2694 0.696864 7.2694 1.90503V4.4898H2.47414C1.2218 4.4898 0.5 5.05061 0.5 6.25877V18.2316C0.5 19.4397 1.2218 20 2.47414 20H20.5259C21.7782 20 22.5 19.4397 22.5 18.2316V6.25877C22.5 5.05061 21.7782 4.4898 20.5259 4.4898ZM8.96175 1.63265H14.0388V4.4898H8.96175V1.63265ZM20.5259 18.2316H2.47414V6.25877H20.5259V18.2316Z"/>
</svg>