<svg xmlns="http://www.w3.org/2000/svg" width="23" height="20" viewBox="0 0 23 20" class="fill-current">
  <path d="M22.1542 9.95623C22.1542 9.9539 22.1518 9.9539 22.1518 9.95156L22.1084 9.90251C22.1059 9.90018 22.1035 9.8955 22.0987 9.89317C22.0818 9.87448 22.0625 9.8558 22.0456 9.83711L12.7233 0.818743L12.0984 0.213781C11.9561 0.0768506 11.7635 0 11.5628 0C11.3622 0 11.1696 0.0768506 11.0272 0.213781L1.08006 9.83945C0.900362 10.0125 0.767739 10.226 0.694047 10.4608L0.679571 10.5098L0.672333 10.5355L0.665095 10.5635C0.66027 10.5799 0.657858 10.5962 0.655445 10.6126C0.655445 10.6149 0.655445 10.6196 0.653032 10.6219C0.638557 10.692 0.631319 10.7621 0.628906 10.8345V10.9116C0.628906 10.9232 0.628906 10.9349 0.631319 10.9466C0.631319 10.9583 0.631319 10.9676 0.633731 10.9793C0.633731 10.991 0.636144 11.0027 0.636144 11.0143C0.636144 11.0283 0.638557 11.0424 0.640969 11.0564C0.640969 11.0634 0.643382 11.0704 0.643382 11.0774L0.65062 11.1358V11.1381C0.773663 11.8505 1.42748 12.3878 2.19469 12.3878H3.22005V20H19.9081V12.3924H20.9551C21.1626 12.3924 21.3629 12.3527 21.5462 12.278C21.7296 12.2032 21.9009 12.0935 22.048 11.9533C22.1918 11.8146 22.3057 11.6496 22.3831 11.468C22.4606 11.2864 22.5 11.0917 22.4992 10.8952C22.4992 10.5519 22.3786 10.2225 22.1542 9.95623ZM12.9139 18.3183H10.2118V13.5533H12.9139V18.3183ZM18.171 10.7107V18.3183H14.458V12.9927C14.458 12.4765 14.0261 12.0584 13.4929 12.0584H9.63276C9.09957 12.0584 8.66772 12.4765 8.66772 12.9927V18.3183H4.95471V10.7107H2.63861L11.5653 2.07538L12.1226 2.61494L20.4895 10.7107H18.171Z" />
</svg>