<svg width="64" height="64" viewBox="0 0 64 64" fill="none" xmlns="http://www.w3.org/2000/svg">
<path d="M9.90522 53.6507C8.16591 53.6507 6.62372 53.2449 5.27866 52.4332C3.86402 51.5983 2.89001 50.3692 2.35662 48.7459C2.07833 47.8414 1.93919 47.0645 1.93919 46.4152C1.93919 45.5803 2.31024 45.1629 3.05235 45.1629C3.30744 45.1629 3.44659 45.2325 3.46978 45.3716C3.49297 45.4876 3.51616 45.6499 3.53935 45.8586C3.56254 46.0673 3.58573 46.2992 3.60892 46.5543C3.74807 47.9458 4.24667 49.0705 5.10473 49.9286C5.19749 50.0214 5.24387 50.1025 5.24387 50.1721C5.19749 50.2185 5.16271 50.2417 5.13951 50.2417C4.95399 50.2417 4.65251 49.9982 4.23507 49.5112C3.74807 49.0242 3.45818 48.6879 3.36542 48.5024C4.61772 51.6563 6.78606 53.2333 9.87043 53.2333C11.888 53.2333 13.8245 52.5144 15.6797 51.0765C17.8596 49.4532 19.5526 47.1921 20.7585 44.2932C21.4078 42.809 22.2311 40.0841 23.2283 36.1185C23.3211 35.7938 23.437 35.4112 23.5762 34.9706C23.7153 34.5299 23.8777 34.0197 24.0632 33.44C23.7617 33.3936 23.4718 33.3472 23.1935 33.3008C22.9152 33.2544 22.6485 33.2197 22.3934 33.1965C21.7209 36.0257 20.7585 39.1565 19.5062 42.5887C17.6277 47.6443 16.0508 50.1721 14.7753 50.1721C14.5897 50.1721 14.4622 49.9982 14.3926 49.6503C14.2071 49.8822 13.9868 50.0909 13.7317 50.2765C13.2447 49.9982 13.0012 49.5923 13.0012 49.0589C13.0012 48.8502 13.0939 48.5951 13.2795 48.2937C13.4882 47.9922 13.6853 47.8414 13.8708 47.8414C13.894 47.911 13.952 47.9806 14.0448 48.0501C14.1375 48.1429 14.2651 48.2473 14.4274 48.3632C14.7753 48.5951 14.9492 48.827 14.9492 49.0589C14.9492 49.1053 14.926 49.1517 14.8796 49.1981C14.9492 49.1749 15.0884 49.0821 15.2971 48.9198C16.6421 47.8762 18.0684 45.2209 19.5758 40.9538C17.9756 43.2033 15.958 44.328 13.523 44.328C11.2967 44.328 9.52257 43.5279 8.2007 41.9278C6.94839 40.4668 6.32224 38.5999 6.32224 36.3272C6.32224 33.1501 7.33104 30.2628 9.34864 27.6655C11.2503 25.2304 13.7085 23.3636 16.7233 22.0649C19.0192 21.1141 21.1991 20.6387 23.2631 20.6387H23.611V19.6647C23.611 19.5719 23.5994 19.4559 23.5762 19.3168C23.5762 19.1776 23.5762 19.0153 23.5762 18.8298V18.0297C23.5762 17.7282 23.6341 17.5427 23.7501 17.4731C23.8429 17.5427 23.9124 18.5979 23.9588 20.6387C26.3243 20.7778 28.0404 21.5315 29.1072 22.8998C29.5014 23.41 29.6985 23.8738 29.6985 24.2912C29.6985 24.4999 29.6174 24.755 29.455 25.0565C29.3159 25.358 29.1304 25.5087 28.8985 25.5087C28.6665 25.5087 28.5506 25.4392 28.5506 25.3C28.5506 25.2768 28.5854 25.2072 28.6549 25.0913C28.7245 24.9753 28.7593 24.8478 28.7593 24.7086C28.7593 24.5231 28.7013 24.326 28.5854 24.1173C28.4694 23.8854 28.3071 23.6187 28.0984 23.3172C27.078 22.0881 25.6981 21.3692 23.9588 21.1605C23.9356 22.3664 23.8661 23.6187 23.7501 24.9174C23.6573 26.216 23.4834 27.5843 23.2283 29.0221C23.1587 29.4628 23.0776 29.9266 22.9848 30.4136C22.892 30.8774 22.7877 31.376 22.6717 31.9094C23.0428 31.9094 23.437 31.9326 23.8545 31.9789C24.2951 32.0253 24.7705 32.0949 25.2807 32.1877C25.9532 31.8166 26.5562 31.6311 27.0896 31.6311C27.2055 31.6311 27.2635 31.6543 27.2635 31.7007C27.2403 31.747 27.1707 31.8166 27.0548 31.9094C26.9388 31.9789 26.7533 32.1529 26.4982 32.4312C27.1244 32.5471 27.6461 32.6399 28.0636 32.7095C28.5042 32.7558 28.8405 32.779 29.0724 32.779C29.9072 32.779 30.5102 32.5935 30.8813 32.2225C30.9508 32.1529 31.0204 32.1181 31.09 32.1181C31.1595 32.1181 31.1943 32.1645 31.1943 32.2572C31.1943 32.3964 31.09 32.5587 30.8813 32.7442C30.0232 33.6487 29.0492 34.1009 27.9592 34.1009C27.6346 34.1009 26.8577 33.9734 25.6286 33.7183C25.2807 34.4372 24.9096 35.4923 24.5154 36.8838C23.8892 39.0869 23.3559 40.8958 22.9152 42.3104C22.4746 43.7019 22.1267 44.6875 21.8716 45.2673C20.6193 48.0965 18.7177 50.2997 16.1667 51.8766C14.2651 53.0594 12.1779 53.6507 9.90522 53.6507ZM14.497 43.4236C16.0276 43.4236 17.3958 42.8206 18.6018 41.6147C19.8077 40.3624 20.4106 38.9942 20.4106 37.5099C20.4106 35.446 19.7381 34.3444 18.393 34.2053C18.6945 34.4372 18.8453 34.7387 18.8453 35.1097C18.8453 35.4808 18.6829 35.8518 18.3582 36.2229C18.0568 36.5939 17.6973 36.8142 17.2799 36.8838C17.419 36.5591 17.4886 36.2576 17.4886 35.9794C17.4886 35.3068 17.1407 34.8546 16.445 34.6227L16.4102 34.6575L16.3754 34.5879C16.2827 34.5879 16.2015 34.5763 16.1319 34.5531C16.4566 34.298 16.7349 34.1241 16.9668 34.0313C17.2915 33.7762 17.535 33.5675 17.6973 33.4052C18.8105 32.5007 20.2831 32.0021 22.1152 31.9094C22.5326 29.915 22.8689 28.0249 23.124 26.2392C23.379 24.4304 23.5298 22.7142 23.5762 21.0909H22.9152C19.4598 21.0909 16.1203 22.6331 12.8968 25.7174C9.71969 28.7786 8.13112 32.0369 8.13112 35.4924C8.13112 37.5795 8.67611 39.3768 9.76607 40.8842C10.972 42.5771 12.549 43.4236 14.497 43.4236ZM20.8629 36.8838C21.002 36.3968 21.1295 35.9214 21.2455 35.4576C21.3846 34.9937 21.5006 34.5415 21.5934 34.1009L21.8021 33.1617H21.4542C20.2483 33.1617 19.1699 33.3472 18.2191 33.7183C19.0076 33.7183 19.6453 34.0545 20.1323 34.7271C20.5498 35.3068 20.7933 36.0257 20.8629 36.8838ZM34.5129 44.7107C33.8635 44.7107 33.4113 44.4672 33.1562 43.9802C32.9011 43.4932 32.7736 42.7974 32.7736 41.893C32.7736 41.777 32.7736 41.6611 32.7736 41.5451C32.7736 41.406 32.7852 41.2784 32.8084 41.1625C32.4605 41.835 31.8923 42.496 31.1038 43.1453C30.2458 43.9106 29.4921 44.2932 28.8427 44.2932C28.4253 44.2932 28.0543 44.0497 27.7296 43.5627C27.4745 43.0989 27.3469 42.6351 27.3469 42.1713C27.3469 41.3828 27.5441 40.49 27.9383 39.4928C28.3557 38.2405 28.8891 37.6143 29.5385 37.6143C29.7704 37.6143 29.8979 37.765 29.9211 38.0665C29.0167 39.6203 28.5644 40.861 28.5644 41.7886C28.5644 42.6931 28.8427 43.1453 29.3993 43.1453C30.582 43.1453 31.8691 41.8698 33.2606 39.3188C33.307 39.1797 33.3765 39.0173 33.4693 38.8318C33.5852 38.6231 33.7128 38.4028 33.8519 38.1709C33.9215 37.9622 34.2346 37.8578 34.7912 37.8578C34.9767 37.8578 35.0695 37.9274 35.0695 38.0665L34.6868 39.1449C34.5013 39.6551 34.3737 40.1421 34.3042 40.6059C34.2346 41.0697 34.1998 41.4988 34.1998 41.893C34.1998 43.1685 34.5013 43.8062 35.1042 43.8062C35.5681 43.8062 36.1362 43.5164 36.8088 42.9366C37.5045 42.3568 38.1422 41.6727 38.722 40.8842C38.7916 40.8146 38.8495 40.7798 38.8959 40.7798C38.9887 40.7798 39.0351 40.861 39.0351 41.0233C39.0351 41.1857 38.9771 41.3364 38.8611 41.4756C37.9335 42.7047 37.1102 43.5511 36.3913 44.015C35.6956 44.4788 35.0695 44.7107 34.5129 44.7107ZM39.1123 44.7803C38.1614 44.7803 37.686 44.3164 37.686 43.3888C37.686 42.5076 38.3238 41.2784 39.5993 39.7015C40.7588 38.2405 41.7676 37.2317 42.6257 36.6751C43.4837 36.1185 44.2838 35.8402 45.0259 35.8402C45.9072 35.8402 46.3478 36.0953 46.3478 36.6055C46.3478 36.7215 46.2318 36.8954 45.9999 37.1273C45.768 37.336 45.6405 37.4636 45.6173 37.5099C45.1766 38.2289 44.9563 39.6899 44.9563 41.893C44.9563 43.1685 45.2346 43.8062 45.7912 43.8062C46.3014 43.8062 46.8928 43.5048 47.5653 42.9018C48.2378 42.2988 48.864 41.6263 49.4437 40.8842C49.5133 40.8146 49.5713 40.7798 49.6177 40.7798C49.7104 40.7798 49.7568 40.8378 49.7568 40.9538C49.7568 41.0002 49.7336 41.0813 49.6872 41.1973C49.6641 41.3132 49.6293 41.406 49.5829 41.4756C48.6321 42.7511 47.8088 43.6091 47.1131 44.0497C46.4405 44.4904 45.7796 44.7107 45.1303 44.7107C44.0867 44.7107 43.5765 43.5975 43.5997 41.3712C43.159 42.1597 42.5213 42.9018 41.6864 43.5975C40.7124 44.386 39.8544 44.7803 39.1123 44.7803ZM40.0515 43.841C40.4457 43.841 40.8632 43.6787 41.3038 43.354C42.672 42.2641 43.5649 40.2233 43.9823 37.2317C43.9127 37.2317 43.8664 37.2201 43.8432 37.1969C43.3794 37.1969 42.7648 37.4752 41.9995 38.0317C41.3502 38.4724 40.8284 38.9478 40.4341 39.458C39.5065 40.6639 39.0427 41.7075 39.0427 42.5887C39.0427 43.4236 39.379 43.841 40.0515 43.841ZM49.2913 44.8846C49.1289 44.8846 48.955 44.7803 48.7695 44.5715C48.6072 44.3628 48.526 44.1773 48.526 44.015V43.9106L48.8391 43.3192C49.0246 42.7858 49.2101 42.1481 49.3956 41.406C49.5812 40.6407 49.7551 39.771 49.9174 38.797C49.9406 38.5651 49.9754 38.3216 50.0218 38.0665C50.0682 37.7882 50.1146 37.4752 50.1609 37.1273C50.2769 36.6635 50.6363 36.4316 51.2393 36.4316C51.4248 36.4316 51.5176 36.5011 51.5176 36.6403C51.5176 36.6867 51.4944 36.849 51.448 37.1273C51.4016 37.4056 51.3321 37.7882 51.2393 38.2752C51.1465 38.8086 51.0306 39.3884 50.8914 40.0145C50.7755 40.6407 50.6363 41.3132 50.474 42.0321L52.109 39.284C52.9206 37.9158 53.6048 37.2317 54.1613 37.2317C54.5092 37.2317 54.6947 37.4404 54.7179 37.8578C54.7875 38.8318 54.8339 39.7942 54.8571 40.7451C54.9034 41.6959 55.031 42.4844 55.2397 43.1105C55.4716 43.7367 55.8775 44.0497 56.4572 44.0497C56.8515 44.0497 57.2341 43.9686 57.6052 43.8062C57.9994 43.6439 58.44 43.3424 58.927 42.9018C59.414 42.438 59.9938 41.7655 60.6663 40.8842C60.6895 40.8378 60.7359 40.7798 60.8055 40.7103C60.8751 40.6407 60.9562 40.6059 61.049 40.6059C61.1418 40.6059 61.1881 40.6523 61.1881 40.7451C61.1881 40.8378 61.1302 40.9654 61.0142 41.1277C60.9214 41.29 60.8519 41.406 60.8055 41.4756C60.1793 42.4032 59.472 43.1801 58.6835 43.8062C57.8951 44.4324 57.1529 44.7455 56.4572 44.7455C55.4368 44.7455 54.6831 44.2353 54.1961 43.2149C53.7323 42.1713 53.4076 40.6987 53.2221 38.797C52.8511 39.1913 52.4104 39.7826 51.9002 40.5711C51.4132 41.3596 50.8451 42.3684 50.1957 43.5975C50.1493 43.7135 50.0798 43.8526 49.987 44.015C49.8942 44.1541 49.7899 44.3396 49.6739 44.5715C49.5812 44.7803 49.4536 44.8846 49.2913 44.8846Z" fill="#C95908"/>
<path d="M48.3694 53.1169C48.2023 52.9926 48.0802 52.8405 48.003 52.6605C47.9216 52.4762 47.9109 52.294 47.9709 52.114C47.9794 51.9812 48.0116 51.8547 48.0673 51.7347C48.1273 51.6105 48.198 51.4926 48.2794 51.3812C48.3652 51.2697 48.4573 51.1647 48.5559 51.0662C48.6544 50.9676 48.7466 50.8755 48.8323 50.7897C48.8494 50.7383 48.8794 50.6933 48.9223 50.6548C48.9652 50.6162 49.0102 50.5798 49.0573 50.5455C49.1087 50.5069 49.158 50.4662 49.2052 50.4233C49.2566 50.3805 49.2973 50.3312 49.3273 50.2755C49.3102 50.2155 49.2823 50.1555 49.2437 50.0955C49.2052 50.0355 49.1623 49.9755 49.1152 49.9155C49.068 49.8555 49.0187 49.7955 48.9673 49.7355C48.9159 49.6755 48.8687 49.6133 48.8259 49.549C48.8216 49.5276 48.8044 49.5212 48.7744 49.5298C48.7487 49.5383 48.7294 49.5362 48.7166 49.5233C48.7252 49.4548 48.7102 49.3819 48.6716 49.3048C48.6373 49.2233 48.5902 49.1548 48.5302 49.099C48.5516 49.0476 48.5709 48.9812 48.588 48.8998C48.6094 48.8183 48.6052 48.7305 48.5752 48.6362C48.5709 48.5933 48.5752 48.5526 48.588 48.514C48.6052 48.4755 48.6223 48.439 48.6394 48.4048C48.6566 48.3705 48.6694 48.3383 48.678 48.3083C48.6866 48.274 48.6844 48.2398 48.6716 48.2055C48.7359 48.1969 48.7937 48.2012 48.8452 48.2183C48.9009 48.2312 48.9502 48.2483 48.993 48.2698C49.0402 48.2869 49.083 48.3019 49.1216 48.3148C49.1644 48.3276 49.2052 48.3255 49.2437 48.3083C49.2352 48.334 49.233 48.3533 49.2373 48.3662C49.2459 48.3748 49.2544 48.3833 49.263 48.3919C49.2759 48.3962 49.2866 48.4005 49.2952 48.4048C49.308 48.409 49.3144 48.4198 49.3144 48.4369C49.3959 48.4626 49.4837 48.5183 49.578 48.604C49.6766 48.6898 49.7709 48.784 49.8609 48.8869C49.9509 48.9898 50.0323 49.0926 50.1052 49.1955C50.178 49.294 50.2316 49.3712 50.2659 49.4269C50.3901 49.3498 50.523 49.2576 50.6644 49.1505C50.8101 49.0433 50.958 48.934 51.108 48.8226C51.2623 48.7112 51.4166 48.6062 51.5709 48.5076C51.7294 48.4048 51.8837 48.3233 52.0337 48.2633C52.1194 48.3019 52.1859 48.3512 52.233 48.4112C52.2844 48.4712 52.3251 48.5355 52.3551 48.604C52.3894 48.6683 52.4194 48.7348 52.4451 48.8033C52.4751 48.8676 52.5137 48.9255 52.5609 48.9769C52.518 49.0626 52.473 49.1355 52.4259 49.1955C52.3787 49.2512 52.3444 49.3198 52.323 49.4012C52.2159 49.444 52.0873 49.5126 51.9373 49.6069C51.8087 49.6883 51.6459 49.7998 51.4487 49.9412C51.2516 50.0826 51.018 50.269 50.748 50.5005C50.8123 50.5733 50.8637 50.6419 50.9023 50.7062C50.9451 50.7705 50.9794 50.8262 51.0051 50.8733C51.0351 50.929 51.0587 50.9805 51.0759 51.0276C51.123 51.0619 51.1616 51.1026 51.1916 51.1497C51.2216 51.1969 51.2494 51.2462 51.2751 51.2976C51.3051 51.3447 51.3373 51.3897 51.3716 51.4326C51.4059 51.4755 51.4509 51.5097 51.5066 51.5355C51.5237 51.6126 51.5451 51.6855 51.5709 51.754C51.5966 51.8183 51.6201 51.8826 51.6416 51.9469C51.6673 52.0112 51.6866 52.0755 51.6994 52.1397C51.7166 52.1997 51.723 52.2619 51.7187 52.3262C51.6844 52.4419 51.633 52.5383 51.5644 52.6155C51.4959 52.6926 51.4466 52.7719 51.4166 52.8533C51.3694 52.8662 51.3223 52.8812 51.2751 52.8983C51.2323 52.9112 51.1959 52.9326 51.1659 52.9626L50.7287 52.654C50.6516 52.3969 50.5401 52.1505 50.3944 51.9147C50.2487 51.679 50.1073 51.4755 49.9702 51.304C49.7644 51.4626 49.5673 51.6383 49.3787 51.8312C49.1902 52.024 49.0187 52.2297 48.8644 52.4483C48.8559 52.5555 48.843 52.6455 48.8259 52.7183C48.8087 52.7869 48.7809 52.8447 48.7423 52.8919C48.7037 52.939 48.6544 52.9797 48.5944 53.014C48.5344 53.0483 48.4594 53.0826 48.3694 53.1169Z" fill="#C95908"/>
<path d="M58.5593 51.9715C58.5879 52.143 58.5765 52.2772 58.525 52.3744C58.4793 52.4715 58.4108 52.543 58.3193 52.5887C58.2336 52.6401 58.1336 52.6687 58.0193 52.6744C57.905 52.6801 57.7965 52.6744 57.6936 52.6572C57.6365 52.5772 57.585 52.4772 57.5393 52.3572C57.4936 52.2372 57.4508 52.1144 57.4108 51.9887C57.3708 51.8572 57.3336 51.7287 57.2993 51.603C57.2708 51.4773 57.245 51.3658 57.2222 51.2687C57.2508 51.2001 57.2679 51.123 57.2736 51.0373C57.285 50.9458 57.2908 50.8544 57.2908 50.763C57.2965 50.6715 57.2993 50.5801 57.2993 50.4887C57.305 50.3915 57.3136 50.3001 57.325 50.2144C57.365 49.9744 57.4222 49.7458 57.4965 49.5287C57.5765 49.3115 57.6393 49.0858 57.685 48.8515C57.6965 48.8001 57.6908 48.7515 57.6679 48.7058C57.6508 48.6601 57.6479 48.6173 57.6593 48.5773C57.665 48.5544 57.6822 48.5401 57.7108 48.5344C57.7393 48.523 57.7565 48.503 57.7622 48.4744C57.7793 48.4115 57.7822 48.3601 57.7708 48.3201C57.765 48.2801 57.7765 48.2315 57.805 48.1744C57.8336 48.1287 57.8679 48.063 57.9079 47.9773C57.9536 47.8858 57.9708 47.7915 57.9593 47.6944C58.0108 47.6601 58.0593 47.6201 58.105 47.5744C58.1508 47.5287 58.1965 47.4887 58.2422 47.4544C58.2936 47.4144 58.3479 47.3801 58.405 47.3515C58.4679 47.323 58.5422 47.3087 58.6279 47.3087C58.6736 47.3658 58.7022 47.4287 58.7136 47.4973C58.7308 47.5658 58.745 47.6344 58.7565 47.703C58.7736 47.7715 58.7965 47.8373 58.825 47.9001C58.8536 47.9573 58.9022 48.003 58.9708 48.0373C58.9708 48.083 58.9708 48.1401 58.9708 48.2087C58.9708 48.2773 58.9736 48.3458 58.9793 48.4144C58.985 48.4773 58.9965 48.5373 59.0136 48.5944C59.0365 48.6458 59.0708 48.6801 59.1165 48.6973C59.0136 48.9715 58.9165 49.243 58.825 49.5115C58.7393 49.7801 58.6679 50.0515 58.6108 50.3258C58.5536 50.5944 58.5165 50.8658 58.4993 51.1401C58.4879 51.4144 58.5079 51.6915 58.5593 51.9715Z" fill="#C95908"/>
<path d="M51.1406 56.4722C51.1292 56.398 51.1149 56.3522 51.0977 56.3351C51.1377 56.2322 51.1663 56.1322 51.1834 56.0351C51.2063 55.9322 51.2234 55.8351 51.2349 55.7437C51.2463 55.6637 51.2577 55.5894 51.2691 55.5208C51.2863 55.4522 51.3063 55.3865 51.3291 55.3237C51.4263 55.3008 51.4977 55.2608 51.5434 55.2037C51.5949 55.1408 51.6349 55.0865 51.6634 55.0408C51.7663 55.0351 51.832 55.0494 51.8606 55.0837C51.8949 55.118 51.932 55.1751 51.972 55.2551C52.0006 55.318 52.0406 55.3865 52.092 55.4608C52.1434 55.5294 52.2206 55.5837 52.3234 55.6237C52.3406 55.6865 52.3606 55.7465 52.3834 55.8037C52.4063 55.8608 52.432 55.9208 52.4606 55.9837C52.512 56.1037 52.5606 56.2294 52.6063 56.3608C52.652 56.4865 52.6777 56.6065 52.6834 56.7208C52.6149 56.8522 52.5606 57.0037 52.5206 57.1751C52.4863 57.3465 52.4634 57.5208 52.452 57.698C52.4463 57.8694 52.452 58.0351 52.4691 58.1951C52.4863 58.3551 52.5149 58.4894 52.5549 58.598L52.6063 58.7351L52.7949 58.718C53.0006 58.6665 53.1863 58.6094 53.352 58.5465C53.5177 58.478 53.672 58.398 53.8149 58.3065C53.9577 58.2151 54.0949 58.1122 54.2263 57.998C54.3577 57.878 54.4949 57.738 54.6377 57.578C54.7749 57.418 54.8977 57.238 55.0063 57.038C55.1149 56.8322 55.2034 56.6208 55.272 56.4037C55.3463 56.1865 55.4034 55.9694 55.4434 55.7522C55.4834 55.5351 55.5091 55.3322 55.5206 55.1437C55.6291 55.0922 55.6891 55.0094 55.7006 54.8951L55.6749 54.7837C55.6577 54.7551 55.6491 54.7294 55.6491 54.7065C55.6549 54.678 55.6634 54.6522 55.6749 54.6294C55.7206 54.498 55.8177 54.4008 55.9663 54.338C56.0691 54.4065 56.1634 54.4808 56.2491 54.5608C56.3406 54.6408 56.4234 54.7208 56.4977 54.8008C56.5091 54.9551 56.532 55.0894 56.5663 55.2037C56.6006 55.3122 56.6377 55.418 56.6777 55.5208C56.7177 55.618 56.752 55.7122 56.7806 55.8037C56.8148 55.8951 56.8377 56.0065 56.8491 56.138C56.792 56.3094 56.7491 56.4722 56.7206 56.6265C56.6977 56.7751 56.6748 56.9322 56.652 57.098L56.6348 57.1922C56.532 57.3694 56.4291 57.5522 56.3263 57.7408C56.2291 57.9237 56.1491 58.0837 56.0863 58.2208C56.052 58.2551 56.0206 58.2951 55.992 58.3408C55.9691 58.3865 55.9463 58.4322 55.9234 58.478C55.912 58.4951 55.8949 58.5237 55.872 58.5637C55.8549 58.6037 55.8377 58.6322 55.8206 58.6494L55.6149 58.5722L55.5634 58.838L55.4263 58.8722L55.3234 58.9922C55.192 59.2208 55.052 59.4122 54.9034 59.5665C54.7606 59.7208 54.5977 59.8579 54.4149 59.9779C54.2377 60.0979 54.0349 60.2122 53.8063 60.3208C53.5834 60.4237 53.3263 60.5351 53.0349 60.6551C52.9206 60.6379 52.8206 60.6294 52.7349 60.6294C52.6549 60.6237 52.5749 60.6179 52.4949 60.6122C52.4149 60.6122 52.3377 60.6094 52.2634 60.6037C52.1891 60.5979 52.1034 60.5894 52.0063 60.5779C51.9834 60.5265 51.952 60.4894 51.912 60.4665C51.872 60.4437 51.8349 60.4322 51.8006 60.4322C51.6863 60.3751 51.6006 60.2951 51.5434 60.1922C51.4863 60.0894 51.4263 59.9751 51.3634 59.8494C51.3349 59.7808 51.3034 59.7122 51.2691 59.6437C51.2406 59.5751 51.2034 59.5094 51.1577 59.4465L51.3291 59.3951L51.1063 59.1379C51.0892 59.1208 51.0692 59.1037 51.0463 59.0865C51.0292 59.0694 51.012 59.0494 50.9949 59.0265V58.8637C50.972 58.3951 50.9606 57.9637 50.9606 57.5694C50.9663 57.1694 51.0206 56.818 51.1234 56.5151L51.1406 56.4722Z" fill="#C95908"/>
<path d="M24.2938 8.03602C33.5237 9.09272 42.1467 14.9671 45.5043 23.7894C48.6242 31.9872 47.8856 40.5506 42.6487 47.7183C33.2162 60.6282 15.7002 60.7149 5.04101 49.2061C4.09287 48.1818 3.34074 46.8417 2.3427 45.9509C7.582 54.7268 17.5599 59.5539 27.6906 57.8516C36.9795 56.2895 44.953 48.5695 47.5847 39.6394C49.6841 32.5188 47.8186 23.4318 43.251 17.6063C38.6508 11.74 31.7774 8.00178 24.2949 8.0346L24.2938 8.03602Z" fill="#C95908"/>
</svg>
