<svg width="36" height="36" viewBox="0 0 36 36" fill="none" xmlns="http://www.w3.org/2000/svg">
<rect x="0.4" y="0.4" width="35.2" height="35.2" rx="17.6" stroke="#C95908" stroke-width="0.8"/>
<path d="M11.7305 10.6575C12.0411 10.6575 12.293 10.4056 12.293 10.095C12.293 9.78431 12.0411 9.53247 11.7305 9.53247C11.4198 9.53247 11.168 9.78431 11.168 10.095C11.168 10.4056 11.4198 10.6575 11.7305 10.6575Z" fill="#C95908"/>
<path d="M11.7305 12.6975V23.9325M24.833 23.9325V16.725C24.831 15.5679 24.3705 14.4588 23.5523 13.6407C22.7341 12.8225 21.625 12.362 20.468 12.36C19.3096 12.36 18.1986 12.8196 17.3788 13.638C16.559 14.4564 16.0975 15.5666 16.0955 16.725M16.0955 16.725V23.9325M16.0955 16.725V12.6975" stroke="#C95908" stroke-width="0.8" stroke-linecap="round" stroke-linejoin="round"/>
</svg>
