<svg width="36" height="36" viewBox="0 0 36 36" fill="none" xmlns="http://www.w3.org/2000/svg">
<rect x="0.4" y="0.4" width="35.2" height="35.2" rx="17.6" stroke="#C95908" stroke-width="0.8"/>
<path d="M25.5038 22.2383C25.256 22.6729 24.8976 23.0342 24.465 23.2854C24.0324 23.5366 23.541 23.6688 23.0408 23.6685C22.289 23.6685 21.568 23.37 21.0364 22.8385C20.5047 22.307 20.2059 21.5861 20.2057 20.8343V18.9923C20.2057 18.2404 20.5044 17.5193 21.0361 16.9876C21.5678 16.456 22.2889 16.1573 23.0408 16.1573C23.7925 16.1575 24.5134 16.4563 25.0449 16.9879C25.5764 17.5196 25.875 18.2405 25.875 18.9923V19.9133H20.2065M14.802 18C15.5458 18.0121 16.2551 18.3161 16.7768 18.8464C17.2985 19.3767 17.5909 20.0908 17.5909 20.8347C17.5909 21.5786 17.2985 22.2927 16.7768 22.8229C16.2551 23.3532 15.5458 23.6572 14.802 23.6693H10.125V12.3315H14.802C15.5424 12.3486 16.2467 12.6547 16.7644 13.1843C17.282 13.714 17.5718 14.4252 17.5718 15.1658C17.5718 15.9064 17.282 16.6176 16.7644 17.1473C16.2467 17.6769 15.5424 17.983 14.802 18ZM14.802 18H10.125M20.2065 12.3315H25.875" stroke="#C95908" stroke-width="0.87" stroke-linecap="round" stroke-linejoin="round"/>
</svg>
