<svg xmlns="http://www.w3.org/2000/svg" width="23" height="20" viewBox="0 0 23 20" class="fill-current" >
  <path fill-rule="evenodd" clip-rule="evenodd" d="M6.45413 12.7863C5.34776 12.7863 4.29221 13.2054 3.51828 13.943C2.74532 14.6797 2.31651 15.6729 2.31651 16.7023C2.31651 17.094 2.47951 17.4755 2.77933 17.7613C3.08012 18.0479 3.49395 18.2137 3.93119 18.2137H19.0688C19.506 18.2137 19.9199 18.0479 20.2207 17.7613C20.5205 17.4755 20.6835 17.094 20.6835 16.7023C20.6835 15.6729 20.2547 14.6797 19.4817 13.943C18.7078 13.2054 17.6522 12.7863 16.5459 12.7863H6.45413ZM2.25404 12.6604C3.37268 11.5942 4.884 11 6.45413 11H16.5459C18.116 11 19.6273 11.5942 20.746 12.6604C21.8656 13.7275 22.5 15.1808 22.5 16.7023C22.5 17.5861 22.1314 18.4278 21.4849 19.0439C20.8394 19.6591 19.9698 20 19.0688 20H3.93119C3.03018 20 2.16058 19.6591 1.51509 19.0439C0.868623 18.4278 0.5 17.5861 0.5 16.7023C0.5 15.1808 1.13443 13.7275 2.25404 12.6604Z" />
  <path fill-rule="evenodd" clip-rule="evenodd" d="M11.4 1.8C9.73445 1.8 8.55 2.99495 8.55 4.275C8.55 5.55506 9.73445 6.75 11.4 6.75C13.0656 6.75 14.25 5.55506 14.25 4.275C14.25 2.99495 13.0656 1.8 11.4 1.8ZM6.75 4.275C6.75 1.82713 8.92342 0 11.4 0C13.8766 0 16.05 1.82713 16.05 4.275C16.05 6.72287 13.8766 8.55 11.4 8.55C8.92342 8.55 6.75 6.72287 6.75 4.275Z" />
</svg>